<?xml version="1.0" standalone="no"?>
<!DOCTYPE svg PUBLIC "-//W3C//DTD SVG 20010904//EN"
 "http://www.w3.org/TR/2001/REC-SVG-20010904/DTD/svg10.dtd">
<svg version="1.0" xmlns="http://www.w3.org/2000/svg"
 width="32.000000pt" height="32.000000pt" viewBox="0 0 32.000000 32.000000"
 preserveAspectRatio="xMidYMid meet">

<g transform="translate(0.000000,32.000000) scale(0.100000,-0.100000)"
fill="#000000" stroke="none">
<path d="M95 306 c-67 -29 -105 -106 -91 -181 10 -49 71 -111 119 -120 132
-25 241 106 182 219 -12 22 -12 32 -4 42 9 11 8 14 -5 14 -9 0 -16 7 -16 16 0
13 -3 14 -14 5 -10 -8 -20 -8 -42 4 -35 18 -89 19 -129 1z m119 -18 c41 -18
15 -36 -44 -30 -44 4 -52 2 -80 -26 -24 -24 -30 -39 -30 -72 0 -92 106 -135
172 -70 28 28 30 36 26 80 -6 59 12 85 30 44 28 -60 2 -136 -60 -174 -117 -71
-259 71 -188 188 38 62 114 88 174 60z m56 -27 c0 -13 -29 -35 -37 -28 -7 8
15 37 28 37 5 0 9 -4 9 -9z m-66 -30 c9 -13 -19 -32 -37 -25 -16 6 -57 -27
-57 -46 0 -13 37 -50 50 -50 19 0 52 41 46 57 -7 18 12 46 25 37 18 -11 9 -77
-13 -101 -48 -51 -138 -15 -138 56 0 49 32 81 81 81 21 0 40 -4 43 -9z m-41
-58 c-5 -12 -2 -15 10 -10 21 8 22 -6 1 -23 -12 -11 -18 -10 -31 3 -13 13 -14
19 -3 31 17 21 31 20 23 -1z"/>
</g>
</svg>
