<?xml version="1.0" standalone="no"?>
<!DOCTYPE svg PUBLIC "-//W3C//DTD SVG 20010904//EN"
 "http://www.w3.org/TR/2001/REC-SVG-20010904/DTD/svg10.dtd">
<svg version="1.0" xmlns="http://www.w3.org/2000/svg"
 width="64.000000pt" height="64.000000pt" viewBox="0 0 64.000000 64.000000"
 preserveAspectRatio="xMidYMid meet">

<g transform="translate(0.000000,64.000000) scale(0.100000,-0.100000)"
fill="#000000" stroke="none">
<path d="M538 593 c-3 -33 -7 -38 -30 -41 -22 -3 -28 1 -28 16 0 11 -8 26 -17
33 -18 15 -17 14 4 -38 3 -9 -5 -13 -26 -13 -20 0 -34 -7 -41 -19 -15 -29 -12
-93 6 -119 14 -20 23 -22 120 -22 l104 0 0 79 c0 44 -4 83 -10 86 -5 3 -10 22
-10 41 0 32 -2 34 -34 34 -33 0 -35 -2 -38 -37z m62 11 c0 -10 -7 -14 -22 -12
-32 5 -35 28 -4 28 17 0 26 -5 26 -16z m-4 -41 c21 -27 17 -33 -21 -33 -39 0
-40 2 -23 30 16 25 27 25 44 3z m-76 -93 l0 -67 -46 1 c-53 1 -74 22 -74 72 0
45 20 61 74 61 l46 0 0 -67z m100 -11 l0 -60 -42 3 c-43 3 -43 3 -46 47 -5 62
1 71 48 71 l40 0 0 -61z"/>
<path d="M427 513 c-13 -13 -7 -61 10 -74 15 -13 16 -12 8 6 -4 11 -8 32 -7
48 1 28 0 31 -11 20z"/>
<path d="M28 575 c-13 -28 3 -55 32 -55 27 0 21 -48 -7 -55 -26 -6 -39 -41
-23 -60 9 -11 35 -15 91 -15 l79 0 0 29 c0 25 4 30 28 33 23 3 27 8 30 40 3
34 1 37 -25 40 -23 2 -29 8 -31 36 l-3 32 -80 0 c-75 0 -80 -1 -91 -25z m162
-20 c0 -26 -1 -26 -72 -23 -67 3 -73 5 -76 26 -3 21 0 22 72 22 75 0 76 0 76
-25z m50 -60 c0 -24 -2 -25 -69 -25 -70 0 -88 8 -77 35 4 11 23 15 76 15 68 0
70 -1 70 -25z m-50 -70 c0 -26 -1 -26 -72 -23 -67 3 -73 5 -76 26 -3 21 0 22
72 22 75 0 76 0 76 -25z"/>
<path d="M283 410 c-37 -15 -56 -55 -49 -101 4 -23 13 -54 22 -70 18 -35 12
-49 -21 -49 -41 0 -65 -43 -65 -116 0 -54 3 -64 18 -65 23 0 210 0 246 0 l28
1 -4 71 c-3 60 -8 74 -27 90 -13 11 -34 19 -48 19 -22 0 -24 3 -18 23 4 12 14
47 23 78 l16 57 -28 36 c-28 37 -50 43 -93 26z m93 -51 c11 -23 12 -29 2 -23
-7 5 -39 10 -70 11 -54 2 -58 1 -59 -20 -1 -16 -3 -17 -6 -5 -7 26 15 58 50
73 39 16 61 6 83 -36z m-8 -54 c5 -43 -6 -73 -31 -81 -45 -16 -77 8 -77 57 0
48 7 55 58 53 43 -2 47 -4 50 -29z m-28 -114 c0 -4 -5 -12 -12 -19 -9 -9 -16
-8 -30 5 -26 23 -22 30 12 25 17 -2 30 -7 30 -11z m-46 -33 c10 -14 16 -44 16
-80 l0 -58 -40 0 -40 0 0 45 c0 25 -4 45 -10 45 -5 0 -10 -20 -10 -45 0 -33
-4 -45 -15 -45 -25 0 -20 101 6 134 26 33 71 35 93 4z m124 6 c19 -13 22 -24
22 -80 0 -50 -3 -64 -15 -64 -11 0 -15 13 -17 53 l-2 52 -3 -52 -4 -53 -40 0
-39 0 0 62 c0 89 40 123 98 82z"/>
<path d="M41 334 c-44 -37 -44 -91 0 -128 35 -30 58 -32 98 -11 59 30 59 120
0 150 -40 21 -63 19 -98 -11z m109 -14 c11 -11 20 -33 20 -50 0 -67 -88 -96
-129 -44 -26 34 -26 54 0 88 26 33 79 36 109 6z"/>
<path d="M105 280 c-10 -11 -25 -20 -34 -20 -12 0 -12 -3 -3 -12 10 -10 19 -5
44 20 18 18 28 32 22 32 -6 0 -19 -9 -29 -20z"/>
<path d="M469 331 c-20 -20 -29 -39 -29 -61 0 -43 47 -90 90 -90 43 0 90 47
90 90 0 43 -47 90 -90 90 -22 0 -41 -9 -61 -29z m113 -8 c23 -20 24 -80 1
-105 -20 -23 -80 -24 -105 -1 -23 20 -24 80 -1 105 20 23 80 24 105 1z"/>
<path d="M535 280 c-10 -12 -25 -18 -32 -16 -16 6 -17 -10 -2 -20 6 -3 25 8
42 25 18 17 27 31 21 31 -6 0 -19 -9 -29 -20z"/>
</g>
</svg>
