<?xml version="1.0" standalone="no"?>
<!DOCTYPE svg PUBLIC "-//W3C//DTD SVG 20010904//EN"
 "http://www.w3.org/TR/2001/REC-SVG-20010904/DTD/svg10.dtd">
<svg version="1.0" xmlns="http://www.w3.org/2000/svg"
 width="512.000000pt" height="512.000000pt" viewBox="0 0 512.000000 512.000000"
 preserveAspectRatio="xMidYMid meet">

<g transform="translate(0.000000,512.000000) scale(0.100000,-0.100000)"
fill="#000000" stroke="none">
<path d="M627 5106 c-54 -20 -111 -60 -141 -99 -60 -78 -56 96 -56 -2445 0
-1699 3 -2335 11 -2362 19 -64 78 -131 144 -165 l59 -30 1895 -3 c2097 -2
1953 -7 2043 63 31 23 56 55 77 96 l31 62 0 2330 c0 1702 -3 2340 -11 2367
-19 64 -78 131 -144 165 l-59 30 -1905 2 c-1585 2 -1912 0 -1944 -11z m3854
-204 l29 -32 0 -2310 0 -2310 -29 -32 -29 -33 -1892 0 -1892 0 -29 33 -29 32
0 2309 0 2308 21 27 c12 15 31 32 43 36 11 5 866 8 1899 7 l1879 -2 29 -33z"/>
<path d="M1805 4281 c-33 -15 -170 -85 -304 -156 -134 -70 -246 -123 -250
-118 -3 6 -36 57 -73 115 -87 135 -130 157 -189 99 -48 -48 -41 -74 62 -235
49 -77 99 -151 109 -163 33 -39 66 -39 139 -4 202 99 609 317 631 337 46 45
21 128 -45 148 -12 3 -44 -6 -80 -23z"/>
<path d="M2278 4124 c-33 -17 -49 -67 -35 -107 20 -60 -32 -57 950 -57 664 0
904 3 920 12 56 29 64 93 18 139 l-29 29 -899 0 c-773 -1 -902 -3 -925 -16z"/>
<path d="M1550 3159 c-156 -82 -287 -149 -291 -149 -3 0 -36 46 -72 103 -80
124 -97 141 -144 141 -44 0 -83 -40 -83 -86 0 -35 189 -342 222 -359 10 -6 31
-9 46 -7 15 2 179 81 366 177 311 160 340 177 353 209 16 38 10 67 -20 100
-39 43 -70 32 -377 -129z"/>
<path d="M2295 3141 c-61 -26 -78 -107 -30 -148 l26 -23 910 0 910 0 24 25
c33 32 33 84 1 122 l-24 28 -899 2 c-494 1 -907 -2 -918 -6z"/>
<path d="M1550 2169 c-156 -82 -287 -149 -291 -149 -4 0 -33 41 -65 91 -85
135 -98 149 -145 149 -29 0 -47 -7 -64 -25 -44 -43 -35 -74 70 -240 52 -82
105 -158 116 -167 42 -35 73 -23 419 156 362 188 379 200 365 266 -8 38 -49
70 -89 69 -20 0 -134 -54 -316 -150z"/>
<path d="M2265 2127 c-37 -32 -37 -89 -1 -126 l26 -26 893 -3 c657 -2 899 1
920 9 60 25 77 100 32 144 l-24 25 -910 0 -910 0 -26 -23z"/>
<path d="M1560 1180 c-157 -82 -290 -149 -297 -150 -6 0 -39 44 -73 98 -84
131 -95 142 -142 142 -28 0 -46 -7 -63 -25 -44 -43 -35 -75 66 -236 50 -79
102 -154 115 -166 47 -43 69 -35 420 148 181 94 337 178 346 186 55 49 11 153
-64 153 -13 0 -151 -68 -308 -150z"/>
<path d="M2265 1137 c-37 -32 -37 -89 -1 -126 l26 -26 911 0 911 0 24 28 c32
38 32 90 -1 122 l-24 25 -910 0 -910 0 -26 -23z"/>
</g>
</svg>
